<svg width="50" height="50" viewBox="0 0 50 50" fill="none" xmlns="http://www.w3.org/2000/svg">
<rect x="0.5" y="0.5" width="49" height="49" rx="7.5" fill="white"/>
<rect x="0.5" y="0.5" width="49" height="49" rx="7.5" stroke="#E3F0F4"/>
<g clip-path="url(#clip0_5_1288)">
<path d="M23.9045 30.9211C23.6378 30.9211 23.3677 30.8657 23.1079 30.7514L17.5666 28.2821C16.5761 27.8422 16.1294 26.6751 16.5692 25.6846L19.0385 20.1433C19.4784 19.1528 20.6455 18.706 21.636 19.1459L27.1773 21.6152C28.1678 22.055 28.6146 23.2222 28.1748 24.2127L25.7054 29.754C25.3764 30.4882 24.656 30.9211 23.9045 30.9211ZM23.5686 29.7124C23.9876 29.8994 24.4794 29.709 24.6664 29.2934L27.1358 23.7521C27.3228 23.333 27.1323 22.8412 26.7167 22.6542L21.1719 20.1849C20.7529 19.9978 20.2611 20.1883 20.0741 20.6039L17.6047 26.1452C17.4177 26.5643 17.6082 27.0561 18.0238 27.2431L23.5686 29.7124Z" fill="#089949"/>
<path d="M41.2868 30.9244H35.2191C34.1351 30.9244 33.252 30.0413 33.252 28.9572V22.8895C33.252 21.8055 34.1351 20.9224 35.2191 20.9224H41.2868C42.3708 20.9224 43.254 21.8055 43.254 22.8895V28.9572C43.254 30.0413 42.3708 30.9244 41.2868 30.9244ZM35.2191 22.0583C34.762 22.0583 34.3879 22.4324 34.3879 22.8895V28.9572C34.3879 29.4144 34.762 29.7884 35.2191 29.7884H41.2868C41.744 29.7884 42.118 29.4144 42.118 28.9572V22.8895C42.118 22.4324 41.744 22.0583 41.2868 22.0583H35.2191Z" fill="#F9B21D"/>
<path d="M18.5645 24.0016L17.7471 25.8302C17.7367 25.851 17.7263 25.8683 17.7159 25.8856L18.0346 27.8528C18.1073 28.3065 17.7991 28.7325 17.3488 28.8052L11.3573 29.7749C11.1391 29.8096 10.9175 29.7576 10.7374 29.6295C10.5573 29.5013 10.4395 29.3074 10.4049 29.0892L9.43517 23.0977C9.40054 22.8795 9.45249 22.6578 9.58063 22.4777C9.70877 22.2977 9.90272 22.1799 10.1209 22.1453L16.1124 21.1755C16.1575 21.1686 16.2025 21.1652 16.244 21.1652C16.6423 21.1652 16.999 21.4561 17.0648 21.8647L17.3869 23.8458L18.232 21.9513L18.187 21.6846C18.0138 20.6145 17.0025 19.8837 15.9323 20.0569L9.94081 21.0266C9.42478 21.1063 8.96762 21.3868 8.66285 21.8128C8.35462 22.2388 8.2334 22.7583 8.31652 23.2778L9.28625 29.2693C9.36937 29.7888 9.6499 30.2425 10.0759 30.5507C10.4118 30.7966 10.8101 30.9213 11.2222 30.9213C11.3261 30.9213 11.4335 30.9144 11.5409 30.8971L17.5324 29.9273C18.6026 29.7542 19.3333 28.7429 19.1601 27.6727L18.5645 24.0016Z" fill="#E42527"/>
<path d="M25.7508 26.8618L26.6305 24.8911L26.3811 23.0591C26.35 22.8409 26.4088 22.6227 26.5439 22.446C26.679 22.2694 26.8729 22.1551 27.0946 22.1274L33.1069 21.3101C33.145 21.3066 33.1831 21.3032 33.2212 21.3032C33.4013 21.3032 33.5744 21.362 33.7233 21.4729C33.751 21.4936 33.7753 21.5179 33.7995 21.5387C34.0662 21.2581 34.416 21.0573 34.8074 20.9707C34.6965 20.8183 34.5649 20.6832 34.4091 20.5655C33.99 20.2468 33.474 20.1118 32.9545 20.181L26.9353 20.9984C26.4158 21.0677 25.9517 21.3378 25.6365 21.7568C25.3179 22.1759 25.1828 22.6919 25.2521 23.2114L25.7508 26.8618Z" fill="#226DB4"/>
<path d="M35.9812 27.8767L35.1915 22.0583C34.7482 22.0722 34.3915 22.4393 34.3915 22.8861V24.5935L34.859 28.0291C34.8902 28.2473 34.8313 28.4655 34.6963 28.6421C34.5612 28.8187 34.3673 28.933 34.1456 28.9607L28.1333 29.7781C27.9151 29.8092 27.6969 29.7504 27.5203 29.6153C27.3437 29.4802 27.2294 29.2863 27.2017 29.0646L26.9246 27.0247L26.0449 28.9954L26.0761 29.217C26.1454 29.7365 26.4155 30.2006 26.8346 30.5158C27.1809 30.779 27.593 30.9175 28.0225 30.9175C28.1125 30.9175 28.2026 30.9106 28.2926 30.9002L34.298 30.0898C34.8175 30.0205 35.2816 29.7504 35.5967 29.3313C35.9154 28.9122 36.0504 28.3962 35.9812 27.8767Z" fill="#226DB4"/>
<path d="M19.0177 33.8021L19.8766 32.5346H19.17C19.1319 32.5346 19.1008 32.5034 19.1008 32.4653V32.2956C19.1008 32.2575 19.1319 32.2263 19.17 32.2263H20.3303C20.3683 32.2263 20.3995 32.2575 20.3995 32.2956V32.3614C20.3995 32.3752 20.3961 32.3891 20.3891 32.3995L19.5475 33.6671H20.3025C20.3406 33.6671 20.3718 33.6982 20.3718 33.7363V33.906C20.3718 33.9441 20.3406 33.9753 20.3025 33.9753H19.0765C19.0384 33.9753 19.0073 33.9441 19.0073 33.906V33.8437C19.0038 33.8264 19.0107 33.8125 19.0177 33.8021Z" fill="black"/>
<path d="M22.6328 33.0891C22.6328 32.5696 23.0138 32.1956 23.5333 32.1956C24.0701 32.1956 24.4337 32.5627 24.4337 33.0926C24.4337 33.6294 24.0632 33.9999 23.5263 33.9999C22.9861 33.9999 22.6328 33.6294 22.6328 33.0891ZM24.0216 33.096C24.0216 32.7809 23.8692 32.5107 23.5263 32.5107C23.18 32.5107 23.0484 32.7912 23.0484 33.1099C23.0484 33.4112 23.2112 33.6882 23.5437 33.6882C23.8865 33.6848 24.0216 33.3904 24.0216 33.096Z" fill="black"/>
<path d="M26.8966 32.2234H27.1529C27.191 32.2234 27.2222 32.2546 27.2222 32.2927V32.9368H27.9495V32.2927C27.9495 32.2546 27.9807 32.2234 28.0187 32.2234H28.275C28.3131 32.2234 28.3443 32.2546 28.3443 32.2927V33.9031C28.3443 33.9412 28.3131 33.9724 28.275 33.9724H28.0222C27.9841 33.9724 27.9529 33.9412 27.9529 33.9031V33.252H27.2256V33.9031C27.2256 33.9412 27.1945 33.9724 27.1564 33.9724H26.9001C26.862 33.9724 26.8308 33.9412 26.8308 33.9031V32.2927C26.8274 32.2546 26.8585 32.2234 26.8966 32.2234Z" fill="black"/>
<path d="M30.7373 33.0891C30.7373 32.5696 31.1183 32.1956 31.6378 32.1956C32.1746 32.1956 32.5382 32.5627 32.5382 33.0926C32.5382 33.6294 32.1677 33.9999 31.6308 33.9999C31.0906 33.9999 30.7373 33.6294 30.7373 33.0891ZM32.1226 33.096C32.1226 32.7809 31.9702 32.5107 31.6274 32.5107C31.281 32.5107 31.1494 32.7912 31.1494 33.1099C31.1494 33.4112 31.3122 33.6882 31.6447 33.6882C31.9876 33.6848 32.1226 33.3904 32.1226 33.096Z" fill="black"/>
</g>
<defs>
<clipPath id="clip0_5_1288">
<rect width="36" height="36" fill="white" transform="translate(7 7)"/>
</clipPath>
</defs>
</svg>
