<svg width="334" height="165" viewBox="0 0 334 165" fill="none" xmlns="http://www.w3.org/2000/svg">
<path d="M212.27 109.21C212.27 134.403 191.846 154.826 166.653 154.826L55.5945 154.826C30.4012 154.826 9.97795 134.403 9.97794 109.21C9.97793 84.0163 30.4012 63.593 55.5945 63.593L88.2044 63.593C89.8457 63.593 91.4213 62.9482 92.5917 61.7976L106.693 47.9342C109.247 45.4236 113.342 45.4236 115.895 47.9342L130.005 61.8051C131.17 62.9509 132.739 63.593 134.373 63.593L166.653 63.593C191.846 63.593 212.27 84.0162 212.27 109.21Z" fill="#F9FAFB"/>
<rect x="11.6582" y="-46.5401" width="87.7917" height="87.7917" rx="43.8958" stroke="#F9FAFB" stroke-width="3.54678"/>
<path d="M120.434 -2.12712C120.434 -27.3385 140.871 -47.7764 166.083 -47.7764L277.225 -47.7764C302.437 -47.7764 322.875 -27.3385 322.875 -2.12715C322.875 23.0842 302.437 43.5221 277.225 43.5221L166.083 43.5221C140.872 43.5221 120.434 23.0843 120.434 -2.12712Z" fill="#F9FAFB"/>
</svg>
