<svg width="223" height="278" viewBox="0 0 223 278" fill="none" xmlns="http://www.w3.org/2000/svg">
<path d="M55.1322 155.925C29.9389 155.925 9.51562 135.502 9.51562 110.308L9.51562 -0.750183C9.51562 -25.9435 29.9389 -46.3668 55.1322 -46.3668C80.3256 -46.3668 100.749 -25.9435 100.749 -0.750187L100.749 31.8596C100.749 33.5009 101.394 35.0766 102.544 36.247L116.408 50.3484C118.918 52.9021 118.918 56.997 116.408 59.5508L102.537 73.6599C101.391 74.8254 100.749 76.3943 100.749 78.0287L100.749 110.308C100.749 135.502 80.3256 155.925 55.1322 155.925Z" fill="#F9FAFB"/>
<rect x="212.748" y="-46.4609" width="91.3385" height="91.3385" rx="45.6692" transform="rotate(90 212.748 -46.4609)" fill="#F9FAFB"/>
<path d="M210.434 109.755L210.434 220.897C210.433 245.129 190.79 264.773 166.558 264.773C142.326 264.773 122.682 245.129 122.682 220.897L122.682 109.755C122.682 85.523 142.326 65.879 166.558 65.8789C190.79 65.8789 210.434 85.5229 210.434 109.755Z" stroke="#F9FAFB" stroke-width="3.54678"/>
</svg>
