<svg width="50" height="50" viewBox="0 0 50 50" fill="none" xmlns="http://www.w3.org/2000/svg">
<rect x="0.5" y="0.5" width="49" height="49" rx="7.5" fill="white"/>
<rect x="0.5" y="0.5" width="49" height="49" rx="7.5" stroke="#E3F0F4"/>
<path fill-rule="evenodd" clip-rule="evenodd" d="M26.2102 35.3955L25.641 36.3572C25.1337 37.2143 23.8663 37.2143 23.359 36.3572L22.7898 35.3955C22.3483 34.6496 22.1275 34.2766 21.7729 34.0704C21.4183 33.8642 20.9719 33.8565 20.0791 33.8411C18.7609 33.8184 17.9342 33.7376 17.2409 33.4504C15.9545 32.9176 14.9325 31.8956 14.3996 30.6091C14 29.6443 14 28.4212 14 25.975V24.925C14 21.4879 14 19.7694 14.7736 18.5069C15.2065 17.8005 15.8005 17.2065 16.5069 16.7736C17.7693 16 19.4879 16 22.925 16H26.075C29.5121 16 31.2307 16 32.4931 16.7736C33.1995 17.2065 33.7935 17.8005 34.2264 18.5069C35 19.7694 35 21.4879 35 24.925V25.975C35 28.4212 35 29.6443 34.6004 30.6091C34.0675 31.8956 33.0455 32.9176 31.7591 33.4504C31.0658 33.7376 30.239 33.8184 28.9209 33.8411C28.028 33.8565 27.5816 33.8642 27.227 34.0704C26.8724 34.2766 26.6517 34.6496 26.2102 35.3955ZM20.3 26.2375C19.8651 26.2375 19.5125 26.5901 19.5125 27.025C19.5125 27.46 19.8651 27.8125 20.3 27.8125H26.075C26.5099 27.8125 26.8625 27.46 26.8625 27.025C26.8625 26.5901 26.5099 26.2375 26.075 26.2375H20.3ZM19.5125 23.35C19.5125 22.9151 19.8651 22.5625 20.3 22.5625H28.7C29.1349 22.5625 29.4875 22.9151 29.4875 23.35C29.4875 23.785 29.1349 24.1375 28.7 24.1375H20.3C19.8651 24.1375 19.5125 23.785 19.5125 23.35Z" fill="#4D8BFF"/>
</svg>
